<?xml version="1.0" encoding="UTF-8" standalone="no"?>
<!DOCTYPE svg PUBLIC "-//W3C//DTD SVG 1.1//EN"
 "http://www.w3.org/Graphics/SVG/1.1/DTD/svg11.dtd">
<!-- Generated by graphviz version 2.43.0 (0)
 -->
<!-- Title: %3 Pages: 1 -->
<svg width="614pt" height="332pt"
 viewBox="0.00 0.00 614.02 332.00" xmlns="http://www.w3.org/2000/svg" xmlns:xlink="http://www.w3.org/1999/xlink">
<g id="graph0" class="graph" transform="scale(1 1) rotate(0) translate(4 328)">
<title>%3</title>
<polygon fill="white" stroke="transparent" points="-4,4 -4,-328 610.02,-328 610.02,4 -4,4"/>
<!-- [root] azurerm_resource_group.example -->
<g id="node1" class="node">
<title>[root] azurerm_resource_group.example</title>
<polygon fill="none" stroke="black" points="434,-108 227.29,-108 227.29,-72 434,-72 434,-108"/>
<text text-anchor="middle" x="330.64" y="-85.8" font-family="Times,serif" font-size="14.00">azurerm_resource_group.example</text>
</g>
<!-- [root] provider.azurerm -->
<g id="node3" class="node">
<title>[root] provider.azurerm</title>
<polygon fill="none" stroke="black" points="330.64,-36 230.51,-18 330.64,0 430.78,-18 330.64,-36"/>
<text text-anchor="middle" x="330.64" y="-13.8" font-family="Times,serif" font-size="14.00">provider.azurerm</text>
</g>
<!-- [root] azurerm_resource_group.example&#45;&gt;[root] provider.azurerm -->
<g id="edge1" class="edge">
<title>[root] azurerm_resource_group.example&#45;&gt;[root] provider.azurerm</title>
<path fill="none" stroke="black" d="M330.64,-71.7C330.64,-63.98 330.64,-54.71 330.64,-46.11"/>
<polygon fill="black" stroke="black" points="334.14,-46.1 330.64,-36.1 327.14,-46.1 334.14,-46.1"/>
</g>
<!-- [root] azurerm_virtual_network.example -->
<g id="node2" class="node">
<title>[root] azurerm_virtual_network.example</title>
<polygon fill="none" stroke="black" points="435.34,-180 225.95,-180 225.95,-144 435.34,-144 435.34,-180"/>
<text text-anchor="middle" x="330.64" y="-157.8" font-family="Times,serif" font-size="14.00">azurerm_virtual_network.example</text>
</g>
<!-- [root] azurerm_virtual_network.example&#45;&gt;[root] azurerm_resource_group.example -->
<g id="edge2" class="edge">
<title>[root] azurerm_virtual_network.example&#45;&gt;[root] azurerm_resource_group.example</title>
<path fill="none" stroke="black" d="M330.64,-143.7C330.64,-135.98 330.64,-126.71 330.64,-118.11"/>
<polygon fill="black" stroke="black" points="334.14,-118.1 330.64,-108.1 327.14,-118.1 334.14,-118.1"/>
</g>
<!-- [root] meta.count&#45;boundary (EachMode fixup) -->
<g id="node4" class="node">
<title>[root] meta.count&#45;boundary (EachMode fixup)</title>
<ellipse fill="none" stroke="black" cx="174.64" cy="-234" rx="174.79" ry="18"/>
<text text-anchor="middle" x="174.64" y="-229.8" font-family="Times,serif" font-size="14.00">[root] meta.count&#45;boundary (EachMode fixup)</text>
</g>
<!-- [root] meta.count&#45;boundary (EachMode fixup)&#45;&gt;[root] azurerm_virtual_network.example -->
<g id="edge3" class="edge">
<title>[root] meta.count&#45;boundary (EachMode fixup)&#45;&gt;[root] azurerm_virtual_network.example</title>
<path fill="none" stroke="black" d="M212.01,-216.23C233.4,-206.63 260.45,-194.5 283.31,-184.24"/>
<polygon fill="black" stroke="black" points="284.81,-187.4 292.5,-180.12 281.94,-181.02 284.81,-187.4"/>
</g>
<!-- [root] provider.azurerm (close) -->
<g id="node5" class="node">
<title>[root] provider.azurerm (close)</title>
<ellipse fill="none" stroke="black" cx="486.64" cy="-234" rx="119.25" ry="18"/>
<text text-anchor="middle" x="486.64" y="-229.8" font-family="Times,serif" font-size="14.00">[root] provider.azurerm (close)</text>
</g>
<!-- [root] provider.azurerm (close)&#45;&gt;[root] azurerm_virtual_network.example -->
<g id="edge4" class="edge">
<title>[root] provider.azurerm (close)&#45;&gt;[root] azurerm_virtual_network.example</title>
<path fill="none" stroke="black" d="M450.46,-216.76C428.87,-207.07 401.2,-194.66 377.89,-184.2"/>
<polygon fill="black" stroke="black" points="379.09,-180.9 368.53,-180 376.22,-187.29 379.09,-180.9"/>
</g>
<!-- [root] root -->
<g id="node6" class="node">
<title>[root] root</title>
<ellipse fill="none" stroke="black" cx="330.64" cy="-306" rx="46.9" ry="18"/>
<text text-anchor="middle" x="330.64" y="-301.8" font-family="Times,serif" font-size="14.00">[root] root</text>
</g>
<!-- [root] root&#45;&gt;[root] meta.count&#45;boundary (EachMode fixup) -->
<g id="edge5" class="edge">
<title>[root] root&#45;&gt;[root] meta.count&#45;boundary (EachMode fixup)</title>
<path fill="none" stroke="black" d="M301.3,-291.83C278.74,-281.71 247.14,-267.53 221.15,-255.87"/>
<polygon fill="black" stroke="black" points="222.41,-252.6 211.85,-251.7 219.54,-258.98 222.41,-252.6"/>
</g>
<!-- [root] root&#45;&gt;[root] provider.azurerm (close) -->
<g id="edge6" class="edge">
<title>[root] root&#45;&gt;[root] provider.azurerm (close)</title>
<path fill="none" stroke="black" d="M359.99,-291.83C382.86,-281.57 415.03,-267.13 441.23,-255.38"/>
<polygon fill="black" stroke="black" points="442.89,-258.47 450.58,-251.18 440.02,-252.08 442.89,-258.47"/>
</g>
</g>
</svg>
